<?xml version="1.0" standalone="no"?>
<!DOCTYPE svg PUBLIC "-//W3C//DTD SVG 20010904//EN"
 "http://www.w3.org/TR/2001/REC-SVG-20010904/DTD/svg10.dtd">
<svg version="1.0" xmlns="http://www.w3.org/2000/svg"
 width="700.000000pt" height="700.000000pt" viewBox="0 0 700.000000 700.000000"
 preserveAspectRatio="xMidYMid meet">
<metadata>
Created by potrace 1.14, written by Peter Selinger 2001-2017
</metadata>
<g transform="translate(0.000000,700.000000) scale(0.100000,-0.100000)"
fill="#000000" stroke="none">
<path d="M1025 6247 c-143 -54 -243 -161 -279 -302 -13 -50 -16 -138 -16 -550
0 -521 2 -540 50 -641 29 -58 112 -144 170 -175 104 -56 124 -57 656 -58 531
-1 537 0 645 55 101 51 193 174 218 291 17 81 14 992 -3 1063 -37 149 -124
251 -270 313 -50 22 -62 22 -581 24 -527 2 -530 2 -590 -20z m1071 -282 c41
-17 56 -31 76 -70 13 -26 16 -101 16 -495 0 -521 0 -517 -70 -563 l-38 -24
-467 -1 c-450 -1 -470 0 -511 20 -29 14 -49 32 -62 58 -18 36 -19 64 -20 496
0 254 4 473 9 491 11 38 35 66 76 87 43 23 937 24 991 1z"/>
<path d="M3428 6249 c-97 -51 -93 -206 6 -253 117 -56 240 46 207 171 -24 88
-127 128 -213 82z"/>
<path d="M4817 6246 c-121 -43 -212 -130 -268 -256 l-24 -55 -3 -497 c-2 -323
0 -517 7 -555 33 -178 173 -320 346 -352 95 -18 997 -14 1068 5 156 41 283
173 317 331 7 32 10 230 8 559 -3 501 -3 510 -25 564 -46 111 -142 207 -253
253 -54 22 -62 22 -580 24 l-525 3 -68 -24z m1079 -282 c19 -9 44 -31 57 -48
l22 -31 0 -490 c0 -474 -1 -491 -20 -517 -11 -15 -38 -36 -60 -47 -38 -19 -63
-20 -503 -19 -437 1 -465 2 -502 20 -27 14 -45 32 -59 61 -19 40 -19 64 -19
504 0 454 0 463 21 505 41 79 28 77 559 78 415 0 473 -2 504 -16z"/>
<path d="M3457 5095 c-46 -16 -64 -30 -85 -69 -14 -28 -16 -85 -18 -506 0
-261 -4 -495 -8 -520 -28 -163 -191 -323 -351 -346 -27 -4 -261 -7 -520 -8
-453 -1 -471 -2 -505 -21 -100 -58 -93 -208 10 -254 36 -16 83 -17 527 -16
268 1 508 5 533 10 171 28 349 137 455 277 76 101 118 198 141 323 11 62 12
1005 1 1040 -24 75 -106 116 -180 90z"/>
<path d="M809 3626 c-55 -28 -82 -76 -76 -137 9 -102 94 -154 202 -122 48 13
86 72 87 133 1 108 -117 178 -213 126z"/>
<path d="M4645 3643 c-76 -14 -120 -68 -120 -147 1 -57 21 -93 70 -122 26 -16
55 -19 213 -20 167 0 185 1 219 20 98 55 100 194 3 251 -31 18 -53 20 -200 21
-91 0 -174 -1 -185 -3z"/>
<path d="M6058 3626 c-55 -29 -81 -76 -75 -139 5 -57 30 -95 78 -119 92 -46
195 12 206 116 14 116 -105 197 -209 142z"/>
<path d="M1065 2466 c-147 -37 -260 -140 -311 -284 l-24 -67 3 -525 c2 -518 2
-526 24 -580 46 -111 142 -207 253 -253 54 -22 63 -22 564 -25 330 -2 526 1
558 8 118 25 246 121 295 220 51 104 53 128 52 649 -1 515 -2 534 -50 635 -27
57 -111 144 -174 179 -97 55 -118 56 -650 56 -357 0 -504 -4 -540 -13z m1053
-301 c18 -11 41 -38 52 -60 18 -38 19 -66 19 -500 -1 -440 -2 -462 -21 -503
-14 -29 -32 -49 -59 -62 -37 -19 -58 -20 -516 -18 -476 3 -478 3 -509 25 -66
47 -65 41 -62 570 3 538 0 512 80 552 39 19 58 20 512 18 450 -2 472 -3 504
-22z"/>
<path d="M3435 2460 c-120 -59 -100 -233 30 -269 65 -18 143 21 169 83 29 71
-2 153 -69 186 -52 25 -80 25 -130 0z"/>
<path d="M5110 2464 c-275 -58 -485 -253 -562 -519 -23 -79 -23 -87 -23 -600
0 -485 1 -523 18 -548 60 -92 193 -87 249 9 17 30 19 64 19 495 0 260 5 490
10 524 29 173 175 320 349 354 34 6 235 10 517 10 255 0 473 3 485 6 30 9 66
43 84 77 30 58 9 139 -47 179 l-34 24 -500 2 c-395 1 -514 -2 -565 -13z"/>
<path d="M3422 1289 c-61 -40 -69 -71 -68 -274 1 -169 2 -182 24 -216 55 -90
188 -91 243 -2 22 36 24 48 24 217 1 156 -1 183 -18 217 -37 75 -134 103 -205
58z"/>
<path d="M6061 1002 c-135 -68 -89 -272 61 -272 58 0 101 24 128 71 71 127
-61 267 -189 201z"/>
</g>
</svg>
