<?xml version="1.0" standalone="no"?>
<!DOCTYPE svg PUBLIC "-//W3C//DTD SVG 20010904//EN"
 "http://www.w3.org/TR/2001/REC-SVG-20010904/DTD/svg10.dtd">
<svg version="1.0" xmlns="http://www.w3.org/2000/svg"
 width="700.000000pt" height="700.000000pt" viewBox="0 0 700.000000 700.000000"
 preserveAspectRatio="xMidYMid meet">
<metadata>
Created by potrace 1.14, written by Peter Selinger 2001-2017
</metadata>
<g transform="translate(0.000000,700.000000) scale(0.100000,-0.100000)"
fill="#000000" stroke="none">
<path d="M1128 6415 c-2 -2 -23 -5 -48 -8 -217 -25 -403 -188 -476 -417 -15
-49 -17 -111 -19 -570 -2 -564 1 -591 56 -709 77 -166 225 -281 419 -327 14
-3 248 -7 520 -8 541 -2 592 2 704 53 162 75 285 225 327 401 15 62 21 979 7
1082 -14 106 -69 228 -136 304 -70 79 -209 166 -289 180 -15 3 -31 8 -37 12
-10 6 -1022 13 -1028 7z m908 -588 c7 -7 8 -856 1 -863 -6 -7 -854 -7 -864 -1
-13 8 -8 858 4 865 14 9 851 8 859 -1z"/>
<path d="M3437 6409 c-61 -14 -112 -45 -155 -94 -97 -111 -96 -273 4 -384 59
-66 127 -95 219 -95 303 2 398 411 127 548 -54 27 -139 38 -195 25z"/>
<path d="M4885 6413 c-178 -30 -325 -123 -416 -264 -39 -62 -77 -158 -85 -216
-10 -69 -11 -987 -2 -1055 30 -226 191 -410 418 -479 74 -23 83 -23 575 -23
275 0 520 3 545 7 236 33 424 210 487 458 3 13 7 256 8 539 2 547 0 572 -47
683 -31 73 -73 133 -138 195 -66 63 -132 102 -226 133 -68 22 -78 22 -584 24
-283 0 -524 0 -535 -2z m942 -586 c8 -8 10 -845 2 -858 -6 -10 -856 -15 -866
-6 -3 4 -7 754 -4 849 1 9 9 18 18 20 33 6 843 1 850 -5z"/>
<path d="M3415 5236 c-95 -30 -169 -105 -196 -200 -5 -16 -9 -247 -9 -513 -1
-457 -2 -487 -20 -537 -26 -69 -75 -125 -141 -161 l-54 -30 -340 -3 c-678 -5
-685 -5 -735 -28 -183 -84 -224 -333 -79 -473 24 -23 67 -50 97 -61 52 -20 77
-21 551 -20 273 0 516 3 541 6 186 25 369 116 504 250 106 107 188 247 229
393 20 72 21 101 25 612 3 524 3 536 -18 592 -53 141 -211 218 -355 173z"/>
<path d="M773 3774 c-62 -23 -136 -94 -163 -156 -50 -115 -21 -249 72 -333 63
-57 129 -79 217 -73 159 12 273 139 267 298 -5 114 -62 202 -162 250 -61 31
-169 37 -231 14z"/>
<path d="M4595 3784 c-58 -14 -142 -75 -174 -128 -84 -136 -46 -313 87 -397
70 -44 106 -50 304 -49 229 0 278 12 351 85 136 136 103 367 -66 461 l-52 29
-215 2 c-118 1 -224 -1 -235 -3z"/>
<path d="M6003 3764 c-225 -108 -222 -428 5 -532 189 -86 406 57 405 268 0
115 -57 207 -163 262 -67 34 -177 35 -247 2z"/>
<path d="M1093 2619 c-52 -7 -164 -38 -173 -49 -3 -3 -16 -10 -30 -16 -87 -39
-205 -165 -252 -270 -53 -116 -55 -146 -53 -704 2 -459 4 -521 19 -570 63
-196 203 -339 393 -401 66 -22 81 -22 578 -24 560 -2 598 1 714 55 167 79 290
237 327 421 10 50 11 994 1 1064 -22 156 -116 308 -247 398 -53 37 -160 82
-221 93 -53 9 -981 12 -1056 3z m944 -582 c6 -7 6 -857 -1 -864 -10 -10 -857
-9 -863 1 -5 7 -8 799 -4 853 1 6 9 13 18 15 26 5 844 0 850 -5z"/>
<path d="M3449 2620 c-88 -15 -163 -71 -207 -154 -23 -44 -27 -63 -27 -136 0
-99 19 -145 86 -210 170 -165 465 -55 486 181 18 197 -145 351 -338 319z"/>
<path d="M5125 2614 c-349 -55 -624 -297 -718 -634 -28 -100 -30 -150 -31
-660 l0 -505 25 -56 c28 -60 85 -122 134 -144 161 -75 343 -2 405 162 16 44
18 90 18 529 0 305 4 496 11 521 24 90 113 179 203 203 23 7 234 12 530 13
l493 2 58 29 c65 31 127 100 148 163 20 59 15 160 -10 215 -29 64 -99 130
-163 153 -49 18 -86 19 -540 20 -325 0 -512 -4 -563 -11z"/>
<path d="M3421 1448 c-51 -14 -122 -64 -154 -108 -51 -72 -57 -105 -57 -319 0
-230 8 -264 76 -340 115 -128 313 -127 429 1 69 76 77 117 73 360 -3 190 -5
206 -27 251 -28 58 -81 110 -141 138 -50 24 -145 32 -199 17z"/>
<path d="M6062 1159 c-97 -18 -185 -99 -215 -200 -42 -138 21 -281 156 -351
65 -34 184 -32 253 4 177 93 213 329 73 469 -68 68 -166 96 -267 78z"/>
</g>
</svg>
